<mxfile host="Electron" agent="Mozilla/5.0 (X11; Linux x86_64) AppleWebKit/537.36 (KHTML, like Gecko) draw.io/28.0.6 Chrome/138.0.7204.100 Electron/37.2.3 Safari/537.36" version="28.0.6">
  <diagram name="Page-1" id="znx50eJQary7bdkYCdUz">
    <mxGraphModel dx="1532" dy="1142" grid="1" gridSize="10" guides="1" tooltips="1" connect="1" arrows="1" fold="1" page="1" pageScale="1" pageWidth="1169" pageHeight="827" math="0" shadow="0" adaptiveColors="auto">
      <root>
        <mxCell id="0" />
        <mxCell id="1" parent="0" />
        <mxCell id="gugzXaBy3OFRLoOntFII-1" value="" style="rounded=0;whiteSpace=wrap;html=1;strokeColor=none;" vertex="1" parent="1">
          <mxGeometry width="1160" height="820" as="geometry" />
        </mxCell>
        <mxCell id="KwKp2TUJxg4RzcYVuOgC-75" value="" style="rounded=0;whiteSpace=wrap;html=1;strokeColor=none;movable=0;resizable=0;rotatable=0;deletable=0;editable=0;locked=1;connectable=0;fillColor=none;" parent="1" vertex="1">
          <mxGeometry width="1160" height="820" as="geometry" />
        </mxCell>
        <mxCell id="KwKp2TUJxg4RzcYVuOgC-1" value="&lt;span style=&quot;color: rgb(77, 77, 77); font-size: 14px;&quot;&gt;Virtio Console Port states&lt;/span&gt;" style="shape=partialRectangle;whiteSpace=wrap;html=1;left=0;right=0;fillColor=none;strokeColor=#4D4D4D;" parent="1" vertex="1">
          <mxGeometry x="425" y="20" width="320" height="30" as="geometry" />
        </mxCell>
        <mxCell id="KwKp2TUJxg4RzcYVuOgC-2" value="" style="ellipse;fillColor=strokeColor;html=1;" parent="1" vertex="1">
          <mxGeometry x="60" y="170" width="20" height="20" as="geometry" />
        </mxCell>
        <mxCell id="KwKp2TUJxg4RzcYVuOgC-3" value="&lt;font style=&quot;font-size: 11px;&quot;&gt;Not Available&lt;/font&gt;" style="html=1;align=center;verticalAlign=top;rounded=1;absoluteArcSize=1;arcSize=10;dashed=0;whiteSpace=wrap;" parent="1" vertex="1">
          <mxGeometry x="160" y="160" width="80" height="40" as="geometry" />
        </mxCell>
        <mxCell id="KwKp2TUJxg4RzcYVuOgC-4" value="&lt;font style=&quot;font-size: 11px;&quot;&gt;Available&lt;/font&gt;" style="html=1;align=center;verticalAlign=top;rounded=1;absoluteArcSize=1;arcSize=10;dashed=0;whiteSpace=wrap;" parent="1" vertex="1">
          <mxGeometry x="320" y="160" width="80" height="40" as="geometry" />
        </mxCell>
        <mxCell id="KwKp2TUJxg4RzcYVuOgC-5" value="&lt;font style=&quot;font-size: 11px;&quot;&gt;Advertised&lt;/font&gt;" style="html=1;align=center;verticalAlign=top;rounded=1;absoluteArcSize=1;arcSize=10;dashed=0;whiteSpace=wrap;" parent="1" vertex="1">
          <mxGeometry x="320" y="260" width="80" height="40" as="geometry" />
        </mxCell>
        <mxCell id="KwKp2TUJxg4RzcYVuOgC-7" value="" style="endArrow=classic;html=1;rounded=0;entryX=0;entryY=0.5;entryDx=0;entryDy=0;" parent="1" target="KwKp2TUJxg4RzcYVuOgC-3" edge="1">
          <mxGeometry width="50" height="50" relative="1" as="geometry">
            <mxPoint x="80" y="180" as="sourcePoint" />
            <mxPoint x="130" y="174.66" as="targetPoint" />
          </mxGeometry>
        </mxCell>
        <mxCell id="KwKp2TUJxg4RzcYVuOgC-11" value="allocate" style="edgeLabel;html=1;align=center;verticalAlign=middle;resizable=0;points=[];" parent="KwKp2TUJxg4RzcYVuOgC-7" vertex="1" connectable="0">
          <mxGeometry x="0.2407" y="-2" relative="1" as="geometry">
            <mxPoint x="-6" y="-17" as="offset" />
          </mxGeometry>
        </mxCell>
        <mxCell id="KwKp2TUJxg4RzcYVuOgC-8" value="" style="endArrow=classic;html=1;rounded=0;" parent="1" edge="1">
          <mxGeometry width="50" height="50" relative="1" as="geometry">
            <mxPoint x="240" y="170" as="sourcePoint" />
            <mxPoint x="320" y="170.34" as="targetPoint" />
          </mxGeometry>
        </mxCell>
        <mxCell id="KwKp2TUJxg4RzcYVuOgC-12" value="set up" style="edgeLabel;html=1;align=center;verticalAlign=middle;resizable=0;points=[];" parent="KwKp2TUJxg4RzcYVuOgC-8" vertex="1" connectable="0">
          <mxGeometry x="-0.0095" relative="1" as="geometry">
            <mxPoint y="-15" as="offset" />
          </mxGeometry>
        </mxCell>
        <mxCell id="KwKp2TUJxg4RzcYVuOgC-9" value="" style="endArrow=classic;html=1;rounded=0;" parent="1" edge="1">
          <mxGeometry width="50" height="50" relative="1" as="geometry">
            <mxPoint x="359.65999999999997" y="200" as="sourcePoint" />
            <mxPoint x="360" y="260" as="targetPoint" />
          </mxGeometry>
        </mxCell>
        <mxCell id="KwKp2TUJxg4RzcYVuOgC-13" value="advertise" style="edgeLabel;html=1;align=center;verticalAlign=middle;resizable=0;points=[];" parent="KwKp2TUJxg4RzcYVuOgC-9" vertex="1" connectable="0">
          <mxGeometry x="0.2662" y="1" relative="1" as="geometry">
            <mxPoint x="29" y="-12" as="offset" />
          </mxGeometry>
        </mxCell>
        <mxCell id="KwKp2TUJxg4RzcYVuOgC-10" value="&lt;font style=&quot;font-size: 11px;&quot;&gt;Open&lt;/font&gt;" style="html=1;align=center;verticalAlign=top;rounded=1;absoluteArcSize=1;arcSize=10;dashed=0;whiteSpace=wrap;" parent="1" vertex="1">
          <mxGeometry x="320" y="360" width="80" height="40" as="geometry" />
        </mxCell>
        <mxCell id="KwKp2TUJxg4RzcYVuOgC-14" value="&lt;div style=&quot;text-wrap: nowrap;&quot;&gt;&lt;font style=&quot;font-size: 10px;&quot;&gt;&quot;set up&quot;:&lt;/font&gt;&lt;/div&gt;&lt;div style=&quot;text-wrap: nowrap;&quot;&gt;&lt;font style=&quot;font-size: 10px;&quot;&gt;associate with a specific&lt;/font&gt;&lt;/div&gt;&lt;div style=&quot;text-wrap: nowrap;&quot;&gt;&lt;font style=&quot;font-size: 10px;&quot;&gt;physical or emulated device&lt;/font&gt;&lt;/div&gt;" style="text;html=1;align=left;verticalAlign=middle;whiteSpace=wrap;rounded=0;" parent="1" vertex="1">
          <mxGeometry x="60" y="560" width="160" height="40" as="geometry" />
        </mxCell>
        <mxCell id="KwKp2TUJxg4RzcYVuOgC-15" value="&lt;span style=&quot;text-wrap: nowrap; background-color: rgb(255, 255, 255);&quot;&gt;&lt;font style=&quot;font-size: 10px;&quot;&gt;&quot;allocate&quot;:&lt;/font&gt;&lt;/span&gt;&lt;div style=&quot;text-wrap: nowrap;&quot;&gt;&lt;font style=&quot;font-size: 10px;&quot;&gt;allocate an object&lt;/font&gt;&lt;/div&gt;" style="text;html=1;align=left;verticalAlign=middle;whiteSpace=wrap;rounded=0;" parent="1" vertex="1">
          <mxGeometry x="60" y="500" width="110" height="30" as="geometry" />
        </mxCell>
        <mxCell id="KwKp2TUJxg4RzcYVuOgC-16" value="" style="endArrow=classic;html=1;rounded=0;" parent="1" edge="1">
          <mxGeometry width="50" height="50" relative="1" as="geometry">
            <mxPoint x="379.65999999999997" y="300" as="sourcePoint" />
            <mxPoint x="380" y="360" as="targetPoint" />
          </mxGeometry>
        </mxCell>
        <mxCell id="KwKp2TUJxg4RzcYVuOgC-17" value="open" style="edgeLabel;html=1;align=center;verticalAlign=middle;resizable=0;points=[];" parent="KwKp2TUJxg4RzcYVuOgC-16" vertex="1" connectable="0">
          <mxGeometry x="0.2662" y="1" relative="1" as="geometry">
            <mxPoint x="19" y="-12" as="offset" />
          </mxGeometry>
        </mxCell>
        <mxCell id="KwKp2TUJxg4RzcYVuOgC-18" value="" style="endArrow=classic;html=1;rounded=0;" parent="1" edge="1">
          <mxGeometry width="50" height="50" relative="1" as="geometry">
            <mxPoint x="340" y="360" as="sourcePoint" />
            <mxPoint x="339.66" y="300" as="targetPoint" />
          </mxGeometry>
        </mxCell>
        <mxCell id="KwKp2TUJxg4RzcYVuOgC-19" value="close" style="edgeLabel;html=1;align=center;verticalAlign=middle;resizable=0;points=[];" parent="KwKp2TUJxg4RzcYVuOgC-18" vertex="1" connectable="0">
          <mxGeometry x="0.2662" y="1" relative="1" as="geometry">
            <mxPoint x="-19" y="2" as="offset" />
          </mxGeometry>
        </mxCell>
        <mxCell id="KwKp2TUJxg4RzcYVuOgC-20" value="" style="endArrow=classic;html=1;rounded=0;" parent="1" edge="1">
          <mxGeometry width="50" height="50" relative="1" as="geometry">
            <mxPoint x="320" y="190" as="sourcePoint" />
            <mxPoint x="240" y="190" as="targetPoint" />
          </mxGeometry>
        </mxCell>
        <mxCell id="KwKp2TUJxg4RzcYVuOgC-21" value="remove" style="edgeLabel;html=1;align=center;verticalAlign=middle;resizable=0;points=[];" parent="KwKp2TUJxg4RzcYVuOgC-20" vertex="1" connectable="0">
          <mxGeometry x="-0.0095" relative="1" as="geometry">
            <mxPoint y="10" as="offset" />
          </mxGeometry>
        </mxCell>
        <mxCell id="KwKp2TUJxg4RzcYVuOgC-22" value="" style="endArrow=classic;html=1;rounded=0;entryX=0.75;entryY=1;entryDx=0;entryDy=0;" parent="1" target="KwKp2TUJxg4RzcYVuOgC-3" edge="1">
          <mxGeometry width="50" height="50" relative="1" as="geometry">
            <mxPoint x="320" y="279.66" as="sourcePoint" />
            <mxPoint x="240" y="279.66" as="targetPoint" />
            <Array as="points">
              <mxPoint x="220" y="280" />
            </Array>
          </mxGeometry>
        </mxCell>
        <mxCell id="KwKp2TUJxg4RzcYVuOgC-23" value="remove" style="edgeLabel;html=1;align=center;verticalAlign=middle;resizable=0;points=[];" parent="KwKp2TUJxg4RzcYVuOgC-22" vertex="1" connectable="0">
          <mxGeometry x="-0.0095" relative="1" as="geometry">
            <mxPoint x="39" y="-10" as="offset" />
          </mxGeometry>
        </mxCell>
        <mxCell id="KwKp2TUJxg4RzcYVuOgC-24" value="" style="endArrow=classic;html=1;rounded=0;entryX=0.38;entryY=0.996;entryDx=0;entryDy=0;entryPerimeter=0;" parent="1" target="KwKp2TUJxg4RzcYVuOgC-3" edge="1">
          <mxGeometry width="50" height="50" relative="1" as="geometry">
            <mxPoint x="320" y="379.66" as="sourcePoint" />
            <mxPoint x="220" y="300" as="targetPoint" />
            <Array as="points">
              <mxPoint x="190" y="380" />
            </Array>
          </mxGeometry>
        </mxCell>
        <mxCell id="KwKp2TUJxg4RzcYVuOgC-25" value="remove" style="edgeLabel;html=1;align=center;verticalAlign=middle;resizable=0;points=[];" parent="KwKp2TUJxg4RzcYVuOgC-24" vertex="1" connectable="0">
          <mxGeometry x="-0.0095" relative="1" as="geometry">
            <mxPoint x="80" y="12" as="offset" />
          </mxGeometry>
        </mxCell>
        <mxCell id="KwKp2TUJxg4RzcYVuOgC-27" value="&lt;font style=&quot;font-size: 10px;&quot;&gt;&quot;advertse&quot;:&lt;/font&gt;&lt;div&gt;&lt;font style=&quot;font-size: 10px;&quot;&gt;execute command &quot;VIRTIO_CONSOLE_DEVICE_ADD&quot;&lt;/font&gt;&lt;/div&gt;" style="text;html=1;align=left;verticalAlign=middle;whiteSpace=wrap;rounded=0;" parent="1" vertex="1">
          <mxGeometry x="60" y="620" width="175" height="40" as="geometry" />
        </mxCell>
        <mxCell id="KwKp2TUJxg4RzcYVuOgC-38" value="&lt;span style=&quot;font-size: 11px; text-align: left;&quot;&gt;Actions description&lt;/span&gt;" style="shape=partialRectangle;whiteSpace=wrap;html=1;bottom=1;right=0;fillColor=none;left=0;top=0;" parent="1" vertex="1">
          <mxGeometry x="40" y="460" width="120" height="20" as="geometry" />
        </mxCell>
        <mxCell id="KwKp2TUJxg4RzcYVuOgC-40" value="" style="shape=waypoint;sketch=0;fillStyle=solid;size=6;pointerEvents=1;points=[];fillColor=none;resizable=0;rotatable=0;perimeter=centerPerimeter;snapToPoint=1;" parent="1" vertex="1">
          <mxGeometry x="40" y="500" width="20" height="20" as="geometry" />
        </mxCell>
        <mxCell id="KwKp2TUJxg4RzcYVuOgC-41" value="" style="shape=waypoint;sketch=0;fillStyle=solid;size=6;pointerEvents=1;points=[];fillColor=none;resizable=0;rotatable=0;perimeter=centerPerimeter;snapToPoint=1;" parent="1" vertex="1">
          <mxGeometry x="40" y="560" width="20" height="20" as="geometry" />
        </mxCell>
        <mxCell id="KwKp2TUJxg4RzcYVuOgC-42" value="" style="shape=waypoint;sketch=0;fillStyle=solid;size=6;pointerEvents=1;points=[];fillColor=none;resizable=0;rotatable=0;perimeter=centerPerimeter;snapToPoint=1;" parent="1" vertex="1">
          <mxGeometry x="40" y="620" width="20" height="20" as="geometry" />
        </mxCell>
        <mxCell id="KwKp2TUJxg4RzcYVuOgC-43" value="" style="shape=waypoint;sketch=0;fillStyle=solid;size=6;pointerEvents=1;points=[];fillColor=none;resizable=0;rotatable=0;perimeter=centerPerimeter;snapToPoint=1;" parent="1" vertex="1">
          <mxGeometry x="40" y="680" width="20" height="20" as="geometry" />
        </mxCell>
        <mxCell id="KwKp2TUJxg4RzcYVuOgC-44" value="&lt;font style=&quot;font-size: 10px;&quot;&gt;&quot;remove&quot;:&lt;/font&gt;&lt;div&gt;&lt;font style=&quot;font-size: 10px;&quot;&gt;execute command &quot;VIRTIO_CONSOLE_DEVICE_REMOVE&quot;&lt;/font&gt;&lt;/div&gt;" style="text;html=1;align=left;verticalAlign=middle;whiteSpace=wrap;rounded=0;" parent="1" vertex="1">
          <mxGeometry x="60" y="680" width="205" height="40" as="geometry" />
        </mxCell>
        <mxCell id="KwKp2TUJxg4RzcYVuOgC-45" value="" style="shape=waypoint;sketch=0;fillStyle=solid;size=6;pointerEvents=1;points=[];fillColor=none;resizable=0;rotatable=0;perimeter=centerPerimeter;snapToPoint=1;" parent="1" vertex="1">
          <mxGeometry x="260" y="500" width="20" height="20" as="geometry" />
        </mxCell>
        <mxCell id="KwKp2TUJxg4RzcYVuOgC-46" value="&lt;font style=&quot;font-size: 10px;&quot;&gt;&quot;open&quot;:&lt;/font&gt;&lt;div&gt;&lt;font style=&quot;font-size: 10px;&quot;&gt;execute command &quot;VIRTIO_CONSOLE_PORT_OPEN&quot;&lt;/font&gt;&lt;/div&gt;&lt;div&gt;&lt;font style=&quot;font-size: 10px;&quot;&gt;(value = 1)&lt;/font&gt;&lt;/div&gt;" style="text;html=1;align=left;verticalAlign=middle;whiteSpace=wrap;rounded=0;" parent="1" vertex="1">
          <mxGeometry x="280" y="500" width="175" height="60" as="geometry" />
        </mxCell>
        <mxCell id="KwKp2TUJxg4RzcYVuOgC-47" value="" style="shape=waypoint;sketch=0;fillStyle=solid;size=6;pointerEvents=1;points=[];fillColor=none;resizable=0;rotatable=0;perimeter=centerPerimeter;snapToPoint=1;" parent="1" vertex="1">
          <mxGeometry x="260" y="570" width="20" height="20" as="geometry" />
        </mxCell>
        <mxCell id="KwKp2TUJxg4RzcYVuOgC-48" value="&lt;font style=&quot;font-size: 10px;&quot;&gt;&quot;close&quot;:&lt;/font&gt;&lt;div&gt;&lt;font style=&quot;font-size: 10px;&quot;&gt;execute command &quot;VIRTIO_CONSOLE_PORT_OPEN&quot;&lt;/font&gt;&lt;/div&gt;&lt;div&gt;&lt;font style=&quot;font-size: 10px;&quot;&gt;(value = 0)&lt;/font&gt;&lt;/div&gt;" style="text;html=1;align=left;verticalAlign=middle;whiteSpace=wrap;rounded=0;" parent="1" vertex="1">
          <mxGeometry x="280" y="570" width="175" height="60" as="geometry" />
        </mxCell>
        <mxCell id="KwKp2TUJxg4RzcYVuOgC-49" value="&lt;font style=&quot;font-size: 11px;&quot;&gt;Not Available&lt;/font&gt;" style="html=1;align=center;verticalAlign=top;rounded=1;absoluteArcSize=1;arcSize=10;dashed=0;whiteSpace=wrap;" parent="1" vertex="1">
          <mxGeometry x="560" y="220" width="80" height="40" as="geometry" />
        </mxCell>
        <mxCell id="KwKp2TUJxg4RzcYVuOgC-51" value="1. Port state diagram" style="text;html=1;align=left;verticalAlign=middle;whiteSpace=wrap;rounded=0;" parent="1" vertex="1">
          <mxGeometry x="160" y="80" width="120" height="30" as="geometry" />
        </mxCell>
        <mxCell id="KwKp2TUJxg4RzcYVuOgC-52" value="2. Port operations sequence diagram with Port states" style="text;html=1;align=left;verticalAlign=middle;whiteSpace=wrap;rounded=0;" parent="1" vertex="1">
          <mxGeometry x="650" y="80" width="300" height="30" as="geometry" />
        </mxCell>
        <mxCell id="KwKp2TUJxg4RzcYVuOgC-53" value="&lt;font style=&quot;font-size: 11px;&quot;&gt;Available&lt;/font&gt;" style="html=1;align=center;verticalAlign=top;rounded=1;absoluteArcSize=1;arcSize=10;dashed=0;whiteSpace=wrap;" parent="1" vertex="1">
          <mxGeometry x="560" y="300" width="80" height="40" as="geometry" />
        </mxCell>
        <mxCell id="KwKp2TUJxg4RzcYVuOgC-54" value="&lt;font style=&quot;font-size: 11px;&quot;&gt;Port,&lt;/font&gt;&lt;div&gt;&lt;font style=&quot;font-size: 11px;&quot;&gt;VMM view&lt;/font&gt;&lt;/div&gt;" style="shape=umlLifeline;perimeter=lifelinePerimeter;whiteSpace=wrap;html=1;container=1;dropTarget=0;collapsible=0;recursiveResize=0;outlineConnect=0;portConstraint=eastwest;newEdgeStyle={&quot;edgeStyle&quot;:&quot;elbowEdgeStyle&quot;,&quot;elbow&quot;:&quot;vertical&quot;,&quot;curved&quot;:0,&quot;rounded&quot;:0};" parent="1" vertex="1">
          <mxGeometry x="640" y="160" width="80" height="560" as="geometry" />
        </mxCell>
        <mxCell id="KwKp2TUJxg4RzcYVuOgC-55" value="&lt;font style=&quot;font-size: 11px;&quot;&gt;Port,&lt;/font&gt;&lt;div&gt;&lt;font style=&quot;font-size: 11px;&quot;&gt;Guest OS view&lt;/font&gt;&lt;/div&gt;" style="shape=umlLifeline;perimeter=lifelinePerimeter;whiteSpace=wrap;html=1;container=1;dropTarget=0;collapsible=0;recursiveResize=0;outlineConnect=0;portConstraint=eastwest;newEdgeStyle={&quot;edgeStyle&quot;:&quot;elbowEdgeStyle&quot;,&quot;elbow&quot;:&quot;vertical&quot;,&quot;curved&quot;:0,&quot;rounded&quot;:0};" parent="1" vertex="1">
          <mxGeometry x="870" y="160" width="100" height="560" as="geometry" />
        </mxCell>
        <mxCell id="KwKp2TUJxg4RzcYVuOgC-56" value="" style="endArrow=classic;html=1;rounded=0;endSize=4;startSize=4;" parent="1" edge="1">
          <mxGeometry width="50" height="50" relative="1" as="geometry">
            <mxPoint x="599.7099999999999" y="260" as="sourcePoint" />
            <mxPoint x="600" y="300" as="targetPoint" />
          </mxGeometry>
        </mxCell>
        <mxCell id="KwKp2TUJxg4RzcYVuOgC-57" value="set up" style="edgeLabel;html=1;align=center;verticalAlign=middle;resizable=0;points=[];" parent="KwKp2TUJxg4RzcYVuOgC-56" vertex="1" connectable="0">
          <mxGeometry x="0.2662" y="1" relative="1" as="geometry">
            <mxPoint x="19" y="-5" as="offset" />
          </mxGeometry>
        </mxCell>
        <mxCell id="KwKp2TUJxg4RzcYVuOgC-58" value="" style="html=1;verticalAlign=bottom;labelBackgroundColor=none;endArrow=block;endFill=1;rounded=0;" parent="1" edge="1">
          <mxGeometry width="160" relative="1" as="geometry">
            <mxPoint x="680.25" y="319.83" as="sourcePoint" />
            <mxPoint x="919.75" y="319.83" as="targetPoint" />
          </mxGeometry>
        </mxCell>
        <mxCell id="KwKp2TUJxg4RzcYVuOgC-59" value="&lt;span style=&quot;font-size: 10px; text-align: left; text-wrap: wrap; background-color: rgb(251, 251, 251);&quot;&gt;VIRTIO_CONSOLE_DEVICE_ADD&lt;/span&gt;" style="edgeLabel;html=1;align=center;verticalAlign=middle;resizable=0;points=[];" parent="KwKp2TUJxg4RzcYVuOgC-58" vertex="1" connectable="0">
          <mxGeometry x="-0.1384" y="1" relative="1" as="geometry">
            <mxPoint x="11" y="-9" as="offset" />
          </mxGeometry>
        </mxCell>
        <mxCell id="KwKp2TUJxg4RzcYVuOgC-60" value="" style="html=1;verticalAlign=bottom;labelBackgroundColor=none;endArrow=block;endFill=1;rounded=0;" parent="1" edge="1">
          <mxGeometry width="160" relative="1" as="geometry">
            <mxPoint x="920" y="479.99999999999994" as="sourcePoint" />
            <mxPoint x="680" y="480.69" as="targetPoint" />
          </mxGeometry>
        </mxCell>
        <mxCell id="KwKp2TUJxg4RzcYVuOgC-61" value="&lt;span style=&quot;font-size: 10px; text-align: left; text-wrap: wrap; background-color: rgb(251, 251, 251);&quot;&gt;VIRTIO_CONSOLE_PORT_OPEN,&lt;/span&gt;&lt;br&gt;&lt;div&gt;&lt;span style=&quot;font-size: 10px; text-align: left; text-wrap: wrap; background-color: rgb(251, 251, 251);&quot;&gt;value = 1&lt;/span&gt;&lt;/div&gt;" style="edgeLabel;html=1;align=center;verticalAlign=middle;resizable=0;points=[];" parent="KwKp2TUJxg4RzcYVuOgC-60" vertex="1" connectable="0">
          <mxGeometry x="-0.1384" y="1" relative="1" as="geometry">
            <mxPoint x="-17" y="-21" as="offset" />
          </mxGeometry>
        </mxCell>
        <mxCell id="KwKp2TUJxg4RzcYVuOgC-62" value="" style="html=1;verticalAlign=bottom;labelBackgroundColor=none;endArrow=block;endFill=1;rounded=0;" parent="1" edge="1">
          <mxGeometry width="160" relative="1" as="geometry">
            <mxPoint x="680" y="660.6899999999999" as="sourcePoint" />
            <mxPoint x="919.5" y="660.6899999999999" as="targetPoint" />
          </mxGeometry>
        </mxCell>
        <mxCell id="KwKp2TUJxg4RzcYVuOgC-63" value="&lt;span style=&quot;font-size: 10px; text-align: left; text-wrap: wrap; background-color: rgb(251, 251, 251);&quot;&gt;VIRTIO_CONSOLE_DEVICE_REMOVE&lt;/span&gt;" style="edgeLabel;html=1;align=center;verticalAlign=middle;resizable=0;points=[];" parent="KwKp2TUJxg4RzcYVuOgC-62" vertex="1" connectable="0">
          <mxGeometry x="-0.1384" y="1" relative="1" as="geometry">
            <mxPoint x="11" y="-9" as="offset" />
          </mxGeometry>
        </mxCell>
        <mxCell id="KwKp2TUJxg4RzcYVuOgC-64" value="" style="html=1;verticalAlign=bottom;labelBackgroundColor=none;endArrow=block;endFill=1;rounded=0;" parent="1" edge="1">
          <mxGeometry width="160" relative="1" as="geometry">
            <mxPoint x="920" y="559.9999999999999" as="sourcePoint" />
            <mxPoint x="680" y="560.6899999999999" as="targetPoint" />
          </mxGeometry>
        </mxCell>
        <mxCell id="KwKp2TUJxg4RzcYVuOgC-65" value="&lt;span style=&quot;font-size: 10px; text-align: left; text-wrap: wrap; background-color: rgb(251, 251, 251);&quot;&gt;VIRTIO_CONSOLE_PORT_OPEN,&lt;/span&gt;&lt;br&gt;&lt;div&gt;&lt;span style=&quot;font-size: 10px; text-align: left; text-wrap: wrap; background-color: rgb(251, 251, 251);&quot;&gt;value = 0&lt;/span&gt;&lt;/div&gt;" style="edgeLabel;html=1;align=center;verticalAlign=middle;resizable=0;points=[];" parent="KwKp2TUJxg4RzcYVuOgC-64" vertex="1" connectable="0">
          <mxGeometry x="-0.1384" y="1" relative="1" as="geometry">
            <mxPoint x="-17" y="-21" as="offset" />
          </mxGeometry>
        </mxCell>
        <mxCell id="KwKp2TUJxg4RzcYVuOgC-66" value="&lt;font style=&quot;font-size: 11px;&quot;&gt;Advertised&lt;/font&gt;" style="html=1;align=center;verticalAlign=top;rounded=1;absoluteArcSize=1;arcSize=10;dashed=0;whiteSpace=wrap;" parent="1" vertex="1">
          <mxGeometry x="560" y="391.03" width="80" height="40" as="geometry" />
        </mxCell>
        <mxCell id="KwKp2TUJxg4RzcYVuOgC-67" value="" style="endArrow=classic;html=1;rounded=0;endSize=4;startSize=4;" parent="1" edge="1">
          <mxGeometry width="50" height="50" relative="1" as="geometry">
            <mxPoint x="599.71" y="341.03" as="sourcePoint" />
            <mxPoint x="600" y="391.03" as="targetPoint" />
          </mxGeometry>
        </mxCell>
        <mxCell id="KwKp2TUJxg4RzcYVuOgC-69" value="" style="endArrow=classic;html=1;rounded=0;endSize=4;startSize=4;entryX=0.5;entryY=0;entryDx=0;entryDy=0;" parent="1" target="KwKp2TUJxg4RzcYVuOgC-70" edge="1">
          <mxGeometry width="50" height="50" relative="1" as="geometry">
            <mxPoint x="599.76" y="431.03" as="sourcePoint" />
            <mxPoint x="600.05" y="476.03" as="targetPoint" />
          </mxGeometry>
        </mxCell>
        <mxCell id="KwKp2TUJxg4RzcYVuOgC-70" value="&lt;font style=&quot;font-size: 11px;&quot;&gt;Open&lt;/font&gt;" style="html=1;align=center;verticalAlign=top;rounded=1;absoluteArcSize=1;arcSize=10;dashed=0;whiteSpace=wrap;" parent="1" vertex="1">
          <mxGeometry x="560" y="480.69" width="80" height="40" as="geometry" />
        </mxCell>
        <mxCell id="KwKp2TUJxg4RzcYVuOgC-71" value="" style="endArrow=classic;html=1;rounded=0;endSize=4;startSize=4;" parent="1" edge="1">
          <mxGeometry width="50" height="50" relative="1" as="geometry">
            <mxPoint x="599.71" y="520.6899999999999" as="sourcePoint" />
            <mxPoint x="599.71" y="560.6899999999999" as="targetPoint" />
          </mxGeometry>
        </mxCell>
        <mxCell id="KwKp2TUJxg4RzcYVuOgC-72" value="&lt;font style=&quot;font-size: 11px;&quot;&gt;Advertised&lt;/font&gt;" style="html=1;align=center;verticalAlign=top;rounded=1;absoluteArcSize=1;arcSize=10;dashed=0;whiteSpace=wrap;" parent="1" vertex="1">
          <mxGeometry x="560" y="560.6899999999999" width="80" height="40" as="geometry" />
        </mxCell>
        <mxCell id="KwKp2TUJxg4RzcYVuOgC-73" value="" style="endArrow=classic;html=1;rounded=0;endSize=4;startSize=4;exitX=0.5;exitY=1;exitDx=0;exitDy=0;" parent="1" source="KwKp2TUJxg4RzcYVuOgC-72" edge="1">
          <mxGeometry width="50" height="50" relative="1" as="geometry">
            <mxPoint x="599.66" y="620.6899999999999" as="sourcePoint" />
            <mxPoint x="599.66" y="660.6899999999999" as="targetPoint" />
          </mxGeometry>
        </mxCell>
        <mxCell id="KwKp2TUJxg4RzcYVuOgC-74" value="&lt;font style=&quot;font-size: 11px;&quot;&gt;Not Available&lt;/font&gt;" style="html=1;align=center;verticalAlign=top;rounded=1;absoluteArcSize=1;arcSize=10;dashed=0;whiteSpace=wrap;" parent="1" vertex="1">
          <mxGeometry x="560" y="661.38" width="80" height="40" as="geometry" />
        </mxCell>
        <mxCell id="7DuPhPbRKMuTt3ArdHG5-1" value="&lt;font style=&quot;font-size: 11px;&quot;&gt;Device file&lt;/font&gt;&lt;div&gt;&lt;font style=&quot;font-size: 11px;&quot;&gt;is not existent&lt;/font&gt;&lt;/div&gt;&lt;div&gt;&lt;font style=&quot;font-size: 11px;&quot;&gt;or&lt;/font&gt;&lt;/div&gt;&lt;div&gt;&lt;font style=&quot;font-size: 11px;&quot;&gt;not available&amp;nbsp;&lt;/font&gt;&lt;span style=&quot;font-size: 11px; background-color: transparent; color: light-dark(rgb(0, 0, 0), rgb(255, 255, 255));&quot;&gt;to open&lt;/span&gt;&lt;/div&gt;" style="html=1;align=center;verticalAlign=top;rounded=1;absoluteArcSize=1;arcSize=10;dashed=0;whiteSpace=wrap;" parent="1" vertex="1">
          <mxGeometry x="960" y="220" width="120" height="70" as="geometry" />
        </mxCell>
        <mxCell id="7DuPhPbRKMuTt3ArdHG5-3" value="&lt;font style=&quot;font-size: 11px;&quot;&gt;Device file&lt;/font&gt;&lt;div&gt;&lt;font style=&quot;font-size: 11px;&quot;&gt;is&lt;/font&gt;&lt;span style=&quot;font-size: 11px; background-color: transparent; color: light-dark(rgb(0, 0, 0), rgb(255, 255, 255));&quot;&gt;&amp;nbsp;available&lt;/span&gt;&lt;/div&gt;&lt;div&gt;&lt;font style=&quot;font-size: 11px;&quot;&gt;to open&lt;/font&gt;&lt;/div&gt;" style="html=1;align=center;verticalAlign=top;rounded=1;absoluteArcSize=1;arcSize=10;dashed=0;whiteSpace=wrap;" parent="1" vertex="1">
          <mxGeometry x="960" y="340" width="80" height="51.03" as="geometry" />
        </mxCell>
        <mxCell id="7DuPhPbRKMuTt3ArdHG5-4" value="&lt;font style=&quot;font-size: 11px;&quot;&gt;Device file&lt;/font&gt;&lt;div&gt;&lt;span style=&quot;font-size: 11px; background-color: transparent; color: light-dark(rgb(0, 0, 0), rgb(255, 255, 255));&quot;&gt;is open&lt;/span&gt;&lt;br&gt;&lt;/div&gt;" style="html=1;align=center;verticalAlign=top;rounded=1;absoluteArcSize=1;arcSize=10;dashed=0;whiteSpace=wrap;" parent="1" vertex="1">
          <mxGeometry x="960" y="480.69" width="80" height="50" as="geometry" />
        </mxCell>
        <mxCell id="7DuPhPbRKMuTt3ArdHG5-5" value="&lt;font style=&quot;font-size: 11px;&quot;&gt;Device file&lt;/font&gt;&lt;div&gt;&lt;span style=&quot;font-size: 11px; background-color: transparent; color: light-dark(rgb(0, 0, 0), rgb(255, 255, 255));&quot;&gt;is closed /&lt;/span&gt;&lt;br&gt;&lt;/div&gt;&lt;div&gt;&lt;span style=&quot;font-size: 11px; background-color: transparent; color: light-dark(rgb(0, 0, 0), rgb(255, 255, 255));&quot;&gt;available&lt;/span&gt;&lt;/div&gt;&lt;div&gt;&lt;span style=&quot;font-size: 11px; background-color: transparent; color: light-dark(rgb(0, 0, 0), rgb(255, 255, 255));&quot;&gt;to open&lt;/span&gt;&lt;/div&gt;" style="html=1;align=center;verticalAlign=top;rounded=1;absoluteArcSize=1;arcSize=10;dashed=0;whiteSpace=wrap;" parent="1" vertex="1">
          <mxGeometry x="960" y="560.6899999999999" width="80" height="70" as="geometry" />
        </mxCell>
        <mxCell id="7DuPhPbRKMuTt3ArdHG5-6" value="" style="endArrow=none;html=1;rounded=0;endFill=1;dashed=1;startFill=0;" parent="1" edge="1">
          <mxGeometry width="50" height="50" relative="1" as="geometry">
            <mxPoint x="920" y="661.38" as="sourcePoint" />
            <mxPoint x="960" y="661.38" as="targetPoint" />
          </mxGeometry>
        </mxCell>
        <mxCell id="7DuPhPbRKMuTt3ArdHG5-7" value="" style="endArrow=none;html=1;rounded=0;endFill=1;dashed=1;startFill=0;" parent="1" edge="1">
          <mxGeometry width="50" height="50" relative="1" as="geometry">
            <mxPoint x="920" y="319.83" as="sourcePoint" />
            <mxPoint x="960" y="319.83" as="targetPoint" />
          </mxGeometry>
        </mxCell>
        <mxCell id="7DuPhPbRKMuTt3ArdHG5-8" value="" style="endArrow=none;html=1;rounded=0;endFill=1;dashed=1;startFill=0;" parent="1" edge="1">
          <mxGeometry width="50" height="50" relative="1" as="geometry">
            <mxPoint x="920" y="480.12" as="sourcePoint" />
            <mxPoint x="960" y="480.12" as="targetPoint" />
          </mxGeometry>
        </mxCell>
        <mxCell id="7DuPhPbRKMuTt3ArdHG5-9" value="" style="endArrow=none;html=1;rounded=0;endFill=1;dashed=1;startFill=0;" parent="1" edge="1">
          <mxGeometry width="50" height="50" relative="1" as="geometry">
            <mxPoint x="920" y="560.1199999999999" as="sourcePoint" />
            <mxPoint x="960" y="560.1199999999999" as="targetPoint" />
          </mxGeometry>
        </mxCell>
        <mxCell id="7DuPhPbRKMuTt3ArdHG5-10" value="&lt;font style=&quot;color: rgb(77, 77, 77); font-size: 10px;&quot;&gt;VC01IL1&amp;nbsp;ver 1.0&lt;/font&gt;&lt;div&gt;&lt;font style=&quot;color: rgb(77, 77, 77); font-size: 10px;&quot;&gt;Apr-9-2025&lt;/font&gt;&lt;/div&gt;" style="shape=partialRectangle;whiteSpace=wrap;html=1;left=0;right=0;fillColor=none;strokeColor=#4D4D4D;" parent="1" vertex="1">
          <mxGeometry x="1040" y="20" width="100" height="30" as="geometry" />
        </mxCell>
        <mxCell id="7DuPhPbRKMuTt3ArdHG5-11" value="&lt;div&gt;&lt;font style=&quot;color: rgb(77, 77, 77); font-size: 10px;&quot;&gt;&lt;span style=&quot;background-color: initial;&quot;&gt;©&amp;nbsp;&lt;/span&gt;Nataliya Korovkina&lt;span style=&quot;background-color: initial;&quot;&gt;&amp;nbsp;2025&amp;nbsp; &amp;nbsp;&lt;/span&gt;&lt;/font&gt;&lt;span style=&quot;color: rgb(77, 77, 77); font-size: 10px; background-color: transparent;&quot;&gt;docs.kernels-abreeze.dev&lt;/span&gt;&lt;/div&gt;" style="shape=partialRectangle;whiteSpace=wrap;html=1;left=0;right=0;fillColor=none;strokeColor=#4D4D4D;" parent="1" vertex="1">
          <mxGeometry x="850" y="790" width="290" height="20" as="geometry" />
        </mxCell>
        <mxCell id="7DuPhPbRKMuTt3ArdHG5-12" value="" style="endArrow=none;html=1;rounded=0;endFill=1;dashed=1;startFill=0;" parent="1" edge="1">
          <mxGeometry width="50" height="50" relative="1" as="geometry">
            <mxPoint x="640" y="319.83000000000004" as="sourcePoint" />
            <mxPoint x="680" y="319.83000000000004" as="targetPoint" />
          </mxGeometry>
        </mxCell>
        <mxCell id="7DuPhPbRKMuTt3ArdHG5-13" value="" style="endArrow=none;html=1;rounded=0;endFill=1;dashed=1;startFill=0;" parent="1" edge="1">
          <mxGeometry width="50" height="50" relative="1" as="geometry">
            <mxPoint x="640" y="480.69000000000005" as="sourcePoint" />
            <mxPoint x="680" y="480.69000000000005" as="targetPoint" />
          </mxGeometry>
        </mxCell>
        <mxCell id="7DuPhPbRKMuTt3ArdHG5-14" value="" style="endArrow=none;html=1;rounded=0;endFill=1;dashed=1;startFill=0;" parent="1" edge="1">
          <mxGeometry width="50" height="50" relative="1" as="geometry">
            <mxPoint x="640" y="560.6899999999999" as="sourcePoint" />
            <mxPoint x="680" y="560.6899999999999" as="targetPoint" />
          </mxGeometry>
        </mxCell>
        <mxCell id="7DuPhPbRKMuTt3ArdHG5-15" value="" style="endArrow=none;html=1;rounded=0;endFill=1;dashed=1;startFill=0;" parent="1" edge="1">
          <mxGeometry width="50" height="50" relative="1" as="geometry">
            <mxPoint x="640" y="661.38" as="sourcePoint" />
            <mxPoint x="680" y="661.38" as="targetPoint" />
          </mxGeometry>
        </mxCell>
        <mxCell id="Y-cwmi2vcWheJ7d9kAND-1" value="" style="html=1;verticalAlign=bottom;labelBackgroundColor=none;endArrow=block;endFill=1;rounded=0;" parent="1" edge="1">
          <mxGeometry width="160" relative="1" as="geometry">
            <mxPoint x="920" y="390.3399999999999" as="sourcePoint" />
            <mxPoint x="680" y="391.03" as="targetPoint" />
          </mxGeometry>
        </mxCell>
        <mxCell id="Y-cwmi2vcWheJ7d9kAND-2" value="&lt;span style=&quot;font-size: 10px; text-align: left; text-wrap: wrap; background-color: rgb(251, 251, 251);&quot;&gt;VIRTIO_CONSOLE_PORT_READY&lt;/span&gt;" style="edgeLabel;html=1;align=center;verticalAlign=middle;resizable=0;points=[];" parent="Y-cwmi2vcWheJ7d9kAND-1" vertex="1" connectable="0">
          <mxGeometry x="-0.1384" y="1" relative="1" as="geometry">
            <mxPoint x="-17" y="-10" as="offset" />
          </mxGeometry>
        </mxCell>
        <mxCell id="Y-cwmi2vcWheJ7d9kAND-3" value="" style="endArrow=none;html=1;rounded=0;endFill=1;dashed=1;startFill=0;" parent="1" edge="1">
          <mxGeometry width="50" height="50" relative="1" as="geometry">
            <mxPoint x="920" y="390.7" as="sourcePoint" />
            <mxPoint x="960" y="390.7" as="targetPoint" />
          </mxGeometry>
        </mxCell>
        <mxCell id="Y-cwmi2vcWheJ7d9kAND-4" value="" style="endArrow=none;html=1;rounded=0;endFill=1;dashed=1;startFill=0;" parent="1" edge="1">
          <mxGeometry width="50" height="50" relative="1" as="geometry">
            <mxPoint x="640" y="391.03000000000003" as="sourcePoint" />
            <mxPoint x="680" y="391.03000000000003" as="targetPoint" />
          </mxGeometry>
        </mxCell>
        <mxCell id="Y-cwmi2vcWheJ7d9kAND-5" value="&lt;font style=&quot;font-size: 11px;&quot;&gt;Device file&lt;/font&gt;&lt;div&gt;&lt;font style=&quot;font-size: 11px;&quot;&gt;is not existent&lt;/font&gt;&lt;/div&gt;&lt;div&gt;&lt;font style=&quot;font-size: 11px;&quot;&gt;or&lt;/font&gt;&lt;/div&gt;&lt;div&gt;&lt;font style=&quot;font-size: 11px;&quot;&gt;not available&amp;nbsp;&lt;/font&gt;&lt;span style=&quot;font-size: 11px; background-color: transparent; color: light-dark(rgb(0, 0, 0), rgb(255, 255, 255));&quot;&gt;to open&lt;/span&gt;&lt;/div&gt;" style="html=1;align=center;verticalAlign=top;rounded=1;absoluteArcSize=1;arcSize=10;dashed=0;whiteSpace=wrap;" parent="1" vertex="1">
          <mxGeometry x="960" y="661.38" width="120" height="70" as="geometry" />
        </mxCell>
      </root>
    </mxGraphModel>
  </diagram>
</mxfile>
